<?xml version="1.0" encoding="UTF-8" standalone="no"?>
<!-- Created with Inkscape (http://www.inkscape.org/) -->

<svg
   width="134.99025mm"
   height="13.376275mm"
   viewBox="0 0 134.99025 13.376275"
   version="1.1"
   id="svg868"
   inkscape:version="1.2.2 (b0a8486541, 2022-12-01)"
   sodipodi:docname="2023-02-12_logo_6.svg"
   inkscape:export-filename="2023-02-12_logo_4_2.png"
   inkscape:export-xdpi="47.040436"
   inkscape:export-ydpi="47.040436"
   xmlns:inkscape="http://www.inkscape.org/namespaces/inkscape"
   xmlns:sodipodi="http://sodipodi.sourceforge.net/DTD/sodipodi-0.dtd"
   xmlns:xlink="http://www.w3.org/1999/xlink"
   xmlns="http://www.w3.org/2000/svg"
   xmlns:svg="http://www.w3.org/2000/svg">
  <sodipodi:namedview
     id="namedview870"
     pagecolor="#ffffff"
     bordercolor="#666666"
     borderopacity="1.0"
     inkscape:showpageshadow="2"
     inkscape:pageopacity="0.0"
     inkscape:pagecheckerboard="0"
     inkscape:deskcolor="#d1d1d1"
     inkscape:document-units="mm"
     showgrid="false"
     showguides="true"
     inkscape:zoom="1"
     inkscape:cx="182.5"
     inkscape:cy="58"
     inkscape:window-width="1890"
     inkscape:window-height="1029"
     inkscape:window-x="15"
     inkscape:window-y="15"
     inkscape:window-maximized="1"
     inkscape:current-layer="layer1">
    <sodipodi:guide
       position="46.044995,0.38474846"
       orientation="0,-1"
       id="guide1735"
       inkscape:locked="false" />
  </sodipodi:namedview>
  <defs
     id="defs865">
    <linearGradient
       id="paint0_linear"
       x1="238.895"
       y1="-22.410601"
       x2="216.229"
       y2="109.724"
       gradientUnits="userSpaceOnUse">
      <stop
         stop-color="#02FFAD"
         id="stop19" />
      <stop
         offset="1"
         stop-color="#F71DF4"
         id="stop21" />
    </linearGradient>
    <linearGradient
       inkscape:collect="always"
       xlink:href="#paint0_linear"
       id="linearGradient1184"
       x1="123.71021"
       y1="92.61142"
       x2="120.11031"
       y2="129.78468"
       gradientUnits="userSpaceOnUse" />
    <linearGradient
       inkscape:collect="always"
       xlink:href="#paint0_linear"
       id="linearGradient1205"
       gradientUnits="userSpaceOnUse"
       x1="125.66861"
       y1="94.427963"
       x2="118.9904"
       y2="138.85074" />
  </defs>
  <g
     inkscape:label="Layer 1"
     inkscape:groupmode="layer"
     id="layer1"
     transform="translate(-47.675335,-100.68927)"
     style="display:inline">
    <path
       d="M -11.0955,-18.6721 299.532,-25.4697 V 82.9489 L -18.9258,47.4977 Z"
       fill="url(#paint0_linear)"
       id="path15"
       style="display:none;fill:url(#paint0_linear)"
       transform="matrix(0.32727207,0,0,0.32727207,47.675337,101.56962)"
       mask="none"
       clip-path="none" />
    <g
       id="g1176"
       style="fill:url(#linearGradient1184);fill-opacity:1">
      <g
         id="g1620"
         style="fill:url(#linearGradient1184);fill-opacity:1">
        <path
           fill-rule="evenodd"
           clip-rule="evenodd"
           d="m 80.089639,101.96387 c 0,-0.21774 0.176531,-0.39425 0.394396,-0.39425 h 1.510033 c 0.217963,0 0.394363,0.17651 0.394363,0.39425 v 9.31444 c 0,0.21773 0.1764,0.39423 0.394363,0.39423 h 8.920127 c 0.344945,0 0.523636,0.4121 0.287345,0.66391 l -1.141525,1.21764 c -0.07462,0.0795 -0.17869,0.1246 -0.287672,0.1246 h -8.172638 -1.904396 c -0.217865,0 -0.394396,-0.1765 -0.394396,-0.39427 z"
           fill="#ffffff"
           id="path1614"
           style="fill:url(#linearGradient1184);fill-opacity:1;stroke-width:0.327272" />
        <path
           fill-rule="evenodd"
           clip-rule="evenodd"
           d="m 56.385258,108.79598 h -4.991456 c -3.6e-4,0 -6.54e-4,-2.6e-4 -6.54e-4,-6.2e-4 0,-3.6e-4 -2.95e-4,-6.5e-4 -6.55e-4,-6.5e-4 -0.03227,8.5e-4 -0.06467,0.001 -0.09717,0.001 -1.999266,0 -3.619989,-1.61767 -3.619989,-3.61318 0,-1.9955 1.620723,-3.61318 3.619989,-3.61318 0.0325,0 0.0649,4.3e-4 0.09717,0.001 3.6e-4,10e-6 6.55e-4,-2.8e-4 6.55e-4,-6.4e-4 0,-3.5e-4 2.94e-4,-6.4e-4 6.54e-4,-6.4e-4 h 7.599323 c 0.35905,0 0.531195,0.44089 0.26712,0.68419 l -1.687972,1.5552 c -0.07279,0.0671 -0.168152,0.1043 -0.267119,0.1043 h -6.012217 c -0.701128,0 -1.269501,0.56837 -1.269501,1.26949 0,0.70115 0.568373,1.26952 1.269501,1.26952 h 5.377342 c 0.0034,0 0.0061,0.003 0.0061,0.006 0,0.003 0.0025,0.006 0.0056,0.006 1.859331,0.15183 3.320863,1.70607 3.320863,3.60104 0,1.99551 -1.620717,3.61319 -3.619989,3.61319 -0.09674,0 -0.1926,-0.004 -0.287443,-0.0112 -0.0033,-2.6e-4 -0.0061,0.002 -0.0061,0.006 0,0.003 -0.0025,0.006 -0.0056,0.006 h -7.536801 c -0.366204,0 -0.53456,-0.45576 -0.256297,-0.69382 l 1.817804,-1.5552 c 0.07142,-0.0611 0.16231,-0.0947 0.256296,-0.0947 h 2.627881 3.392633 c 0.701115,0 1.269488,-0.56837 1.269488,-1.26949 0,-0.70114 -0.568373,-1.26952 -1.269488,-1.26952 z"
           fill="#ffffff"
           id="path1616"
           style="fill:url(#linearGradient1184);fill-opacity:1;stroke-width:0.327272" />
        <path
           fill-rule="evenodd"
           clip-rule="evenodd"
           d="m 65.939769,101.56962 c -5.89e-4,0 -0.001,4.8e-4 -0.001,0.001 0,5.7e-4 -4.58e-4,10e-4 -10e-4,10e-4 -1.16414,0.0502 -2.09896,0.98328 -2.149294,2.14523 0,5.7e-4 -4.91e-4,0.001 -10e-4,0.001 -5.89e-4,0 -0.0011,4.8e-4 -0.0011,0.001 v 7.61491 c 0,5.5e-4 4.59e-4,0.001 10e-4,0.001 5.56e-4,0 0.001,4.9e-4 0.001,10e-4 -0.0014,0.032 -0.0021,0.0642 -0.0021,0.0966 0,1.20737 0.954489,2.19227 2.151422,2.24391 5.56e-4,3e-5 0.001,4.9e-4 0.001,10e-4 0,5.9e-4 4.58e-4,0.001 10e-4,0.001 H 74.156 c 5.89e-4,0 0.0011,-4.9e-4 0.0011,-0.001 0,-5.6e-4 4.26e-4,-10e-4 0.001,-10e-4 1.196899,-0.0516 2.151388,-1.03654 2.151388,-2.24391 0,-0.0324 -6.87e-4,-0.0646 -0.002,-0.0966 -3.3e-5,-5.9e-4 4.25e-4,-10e-4 10e-4,-10e-4 5.56e-4,0 0.001,-4.6e-4 0.001,-0.001 v -7.61491 c 0,-5.9e-4 -4.58e-4,-0.001 -0.001,-0.001 -5.89e-4,0 -10e-4,-4.5e-4 -0.0011,-0.001 -0.05034,-1.16195 -0.985122,-2.095 -2.149261,-2.14523 -5.89e-4,-3e-5 -10e-4,-5e-4 -10e-4,-10e-4 0,-5.8e-4 -4.91e-4,-0.001 -0.0011,-0.001 z m 1.540568,2.14838 c -3.6e-4,0 -6.54e-4,3e-4 -6.54e-4,6.7e-4 0,3.6e-4 -2.95e-4,6.6e-4 -6.55e-4,6.7e-4 -0.727591,0.0316 -1.311837,0.61852 -1.343288,1.34941 0,3.6e-4 -2.95e-4,6.5e-4 -6.55e-4,6.5e-4 -3.92e-4,0 -6.87e-4,3e-4 -6.87e-4,6.6e-4 v 4.79005 c 0,3.6e-4 2.95e-4,6.2e-4 6.55e-4,6.2e-4 3.6e-4,0 6.54e-4,3.3e-4 6.21e-4,6.9e-4 -8.5e-4,0.0201 -0.0013,0.0404 -0.0013,0.0607 0,0.7595 0.596552,1.37899 1.34463,1.41149 3.6e-4,3e-5 6.55e-4,3.3e-4 6.55e-4,6.9e-4 0,3.6e-4 2.94e-4,6.5e-4 6.54e-4,6.5e-4 h 5.135128 c 3.6e-4,0 6.87e-4,-2.9e-4 6.87e-4,-6.5e-4 0,-3.6e-4 2.62e-4,-6.6e-4 6.22e-4,-6.9e-4 0.748079,-0.0325 1.34463,-0.65199 1.34463,-1.41149 0,-0.0204 -4.25e-4,-0.0406 -0.0013,-0.0607 -3.3e-5,-3.6e-4 2.62e-4,-6.9e-4 6.22e-4,-6.9e-4 3.6e-4,0 6.54e-4,-2.6e-4 6.54e-4,-6.2e-4 v -4.79005 c 0,-3.6e-4 -2.94e-4,-6.6e-4 -6.54e-4,-6.6e-4 -3.6e-4,0 -6.55e-4,-2.9e-4 -6.88e-4,-6.2e-4 -0.03145,-0.73092 -0.615697,-1.31784 -1.343288,-1.34944 -3.6e-4,-1e-5 -6.22e-4,-3.1e-4 -6.22e-4,-6.7e-4 0,-3.7e-4 -3.27e-4,-6.7e-4 -6.87e-4,-6.7e-4 z"
           fill="#ffffff"
           id="path1618"
           style="fill:url(#linearGradient1205);fill-opacity:1;stroke-width:0.327272" />
      </g>
    </g>
  </g>
  <g
     inkscape:groupmode="layer"
     id="layer2"
     inkscape:label="Layer 2"
     transform="translate(-47.675335,-100.68927)">
    <g
       aria-label="BOARDS"
       id="text1677"
       style="font-size:17.4625px;line-height:1.25;font-family:Arial;-inkscape-font-specification:Arial;letter-spacing:2.91042px;stroke-width:0.264583">
      <path
         d="m 106.34867,110.24126 c 0,-1.65894 -1.06521,-2.63684 -2.46221,-3.12579 1.10013,-0.48895 1.76371,-1.36207 1.76371,-2.54952 0,-2.07804 -1.8161,-3.10833 -4.3307,-3.10833 h -4.505326 v 12.22375 h 4.784726 c 2.89877,0 4.7498,-1.01282 4.7498,-3.44011 z m -5.36099,-6.49605 c 1.01283,0 1.60655,0.43656 1.60655,1.2573 0,0.82074 -0.59372,1.30969 -1.60655,1.30969 h -1.222373 v -2.56699 z m -1.222373,7.64858 v -3.02102 h 1.501773 c 1.13506,0 2.02565,0.38418 2.02565,1.44939 0,1.16999 -0.89059,1.57163 -2.02565,1.57163 z"
         style="font-weight:bold;font-family:'Jost*';-inkscape-font-specification:'Jost* Bold';fill:#3ec1e8"
         id="path302" />
      <path
         d="m 110.62116,107.5695 c 0,3.7719 2.74161,6.49605 6.58336,6.49605 3.84175,0 6.58336,-2.72415 6.58336,-6.49605 0,-3.7719 -2.81146,-6.39128 -6.58336,-6.39128 -3.71951,0 -6.58336,2.61938 -6.58336,6.39128 z m 3.12578,0 c 0,-2.16535 1.37954,-3.68459 3.45758,-3.68459 2.13042,0 3.44011,1.51924 3.44011,3.68459 0,2.16535 -1.36207,3.68459 -3.44011,3.68459 -2.07804,0 -3.45758,-1.51924 -3.45758,-3.68459 z"
         style="font-weight:bold;font-family:'Jost*';-inkscape-font-specification:'Jost* Bold';fill:#3ec1e8"
         id="path304" />
      <path
         d="m 136.25026,113.68137 h 3.3528 l -6.4262,-12.9921 -6.44366,12.9921 h 3.3528 l 1.13506,-2.35743 h 3.87667 z m -3.0734,-7.71842 1.34461,3.10832 h -2.70669 z"
         style="font-weight:bold;font-family:'Jost*';-inkscape-font-specification:'Jost* Bold';fill:#3ec1e8"
         id="path306" />
      <path
         d="m 143.78825,101.45762 v 12.22375 h 2.95117 v -4.22592 h 0.90805 l 2.61937,4.22592 h 3.47504 l -3.17818,-4.6101 c 1.60655,-0.61118 2.44475,-1.93833 2.44475,-3.61473 0,-2.35744 -1.64147,-3.99892 -4.76726,-3.99892 z m 4.24339,2.5146 c 1.18745,0 1.90341,0.57627 1.90341,1.58909 0,1.01283 -0.71596,1.58909 -1.90341,1.58909 h -1.29222 v -3.17818 z"
         style="font-weight:bold;font-family:'Jost*';-inkscape-font-specification:'Jost* Bold';fill:#3ec1e8"
         id="path308" />
      <path
         d="m 162.36252,113.68137 c 3.99892,0 6.54844,-2.35743 6.54844,-6.11187 0,-3.75444 -2.54952,-6.11188 -6.54844,-6.11188 h -4.36562 v 12.22375 z m -0.10477,-9.58691 c 1.88595,0 3.59727,0.85566 3.59727,3.47504 0,2.61937 -1.71132,3.47504 -3.59727,3.47504 h -1.20491 v -6.95008 z"
         style="font-weight:bold;font-family:'Jost*';-inkscape-font-specification:'Jost* Bold';fill:#3ec1e8"
         id="path310" />
      <path
         d="m 175.05194,109.3856 -2.06058,1.48431 c 0.80328,1.78118 2.75908,3.19564 5.15144,3.19564 2.30505,0 4.52279,-1.36208 4.52279,-3.85921 0,-2.00819 -1.41447,-3.16072 -3.12579,-3.75444 -1.69386,-0.59373 -2.68922,-1.03029 -2.68922,-1.86849 0,-0.54134 0.43656,-0.94297 1.27476,-0.94297 0.94297,0 1.69386,0.57626 2.2352,1.44938 l 2.25266,-1.2573 c -0.64611,-1.2573 -2.06058,-2.6543 -4.52279,-2.6543 -2.3749,0 -4.26085,1.30969 -4.26085,3.4925 0,2.3749 2.06058,3.31788 3.26549,3.7719 1.76371,0.66358 2.44475,0.99537 2.44475,1.90342 0,0.75088 -0.61119,1.20491 -1.48431,1.20491 -1.23984,0 -2.25266,-0.8382 -3.00355,-2.16535 z"
         style="font-weight:bold;font-family:'Jost*';-inkscape-font-specification:'Jost* Bold';fill:#3ec1e8"
         id="path312" />
    </g>
  </g>
</svg>
